<svg xmlns="http://www.w3.org/2000/svg" width="700" height="700" viewBox="0 0 700 700" version="1.1">
    <path
        d="M 343.500 19.646 C 286.597 28.171, 272.902 106.225, 323.948 131.078 L 328.922 133.500 328.961 160.750 L 329 188 236.710 188 C 135.499 188, 139.592 187.776, 126.096 194.058 C 111.529 200.839, 100.149 211.983, 92.968 226.500 C 85.384 241.831, 85.938 223.009, 86.234 455.086 L 86.500 663.500 89.500 669.500 C 96.166 682.831, 114.027 682.619, 126 669.066 C 130.247 664.258, 161.214 640.249, 169.033 635.701 C 180.626 628.958, 164.065 629.553, 355.500 629 L 528.500 628.500 537.416 626.220 C 573.784 616.922, 602.422 588.384, 611.569 552.328 L 614 542.744 614 394.582 C 614 231.834, 614.366 241.897, 607.947 228.107 C 600.925 213.022, 590.253 202.079, 575.708 195.050 C 560.605 187.751, 565.110 188.031, 462.750 188.015 L 371 188 371.004 161.250 L 371.009 134.500 378.745 130.528 C 408.117 115.448, 418.335 77.262, 400.762 48.251 C 389.157 29.094, 364.075 16.564, 343.500 19.646 M 183.116 251.042 C 165.685 256.166, 151.500 270.153, 146.583 287.067 C 144.424 294.494, 143.901 518.191, 146.023 526.500 C 149.779 541.200, 162.171 556.676, 175.113 562.828 C 189.032 569.444, 177.503 569.057, 352.083 568.765 L 510.500 568.500 518.615 565.146 C 537.042 557.531, 548.773 544.016, 554.004 524.375 C 556.701 514.248, 557.178 303.471, 554.533 290.826 C 550.558 271.828, 534.779 255.564, 515.436 250.525 C 505.412 247.914, 192.099 248.401, 183.116 251.042 M 220.910 323.595 C 213.178 326.807, 213 327.845, 213.004 369.636 C 213.009 419.365, 210.637 416.002, 245.700 415.996 C 280.202 415.991, 278 419.200, 278 368.918 C 278 319.192, 279.878 321.972, 246.346 322.052 C 229.345 322.092, 223.704 322.434, 220.910 323.595 M 429.244 325.516 C 423.618 329.521, 423.500 330.424, 423.500 369.500 C 423.500 417.804, 421.240 414.349, 453.138 414.819 C 489.276 415.351, 486.500 419.141, 486.500 369.269 L 486.500 331.038 483.233 327.769 L 479.965 324.500 455.733 324.205 C 434.770 323.950, 431.196 324.127, 429.244 325.516 M 258.273 453.703 C 247.093 470.743, 259.228 516.366, 276.545 522.398 C 295.272 528.921, 301 526.012, 301 509.977 L 301 498 312 498 L 323 498 323.015 509.750 C 323.036 525.851, 320.606 524.446, 349.060 524.801 C 379.998 525.187, 378 526.213, 378 509.942 L 378 497.930 388.250 498.215 L 398.500 498.500 398.781 510.787 L 399.062 523.073 401.781 524.131 C 413.613 528.737, 433.342 519.095, 439.564 505.665 C 442.915 498.431, 442.911 454.869, 439.559 452.419 C 437.917 451.219, 423.914 451, 348.832 451 L 260.046 451 258.273 453.703"
        stroke="none" fill="#ffffff" fill-rule="evenodd" />
</svg>